<?xml version="1.0" encoding="UTF-8"?>
<svg version="1.1" viewBox="0 0 340 194.82" xmlns="http://www.w3.org/2000/svg">
<svg y="72.993" width="340" height="48.834" version="1.1" viewBox="0 0 395.52 48.83410326757214" viewbox="0 0 340 194.82000000000002" xmlns="http://www.w3.org/2000/svg" xmlns:svgjs="http://svgjs.com/svgjs" xmlns:xlink="http://www.w3.org/1999/xlink">
<svg width="395.52" height="48.834" viewBox="0 0 513.7002961751568 63.42560000000001">
<svg width="513.7" height="63.426" viewBox="0 0 513.7002961751568 63.42560000000001">
<svg width="513.7" height="63.426" viewBox="0 0 513.7002961751568 63.42560000000001">
<svg width="513.7" height="63.426" viewBox="0 0 513.7002961751568 63.42560000000001">
<svg/>
<svg>
<svg/>
</svg>
<svg width="513.7" height="63.426" viewBox="0 0 513.7002961751568 63.42560000000001">
<g transform="translate(0 4.5788)">
<svg width="395.52" height="54.268" data-palette-color="#50a060" viewBox="5.099999904632568 -37.5 285.67999267578125 39.20000076293945">
<path class="undefined-text-0" d="m10.25 0h-5.15v-37.5h0.05l19.3 27.35-2.3-0.5 19.2-26.85h0.1v37.5h-5.3v-25.45l0.35 2.75-13.4 18.95h-0.1l-13.65-18.95 0.9-2.5v25.2zm51.9 0.15q-3 0-5.53-1.13-2.52-1.12-4.37-3.27t-2.9-5.28q-1.05-3.12-1.05-7.07 0-4.3 1-7.45t2.82-5.23q1.83-2.07 4.38-3.05 2.55-0.97 5.65-0.97 3.05 0 5.57 1.1 2.53 1.1 4.38 3.25t2.87 5.27q1.03 3.13 1.03 7.08 0 4.05-1.03 7.17-1.02 3.13-2.9 5.26-1.87 2.12-4.37 3.22t-5.55 1.1zm-0.05-5.15q2.85 0 4.7-1.48 1.85-1.47 2.75-4.15 0.9-2.67 0.9-6.12 0-3.35-0.9-5.93-0.9-2.57-2.75-4.05-1.85-1.47-4.7-1.42-2.75-0.05-4.6 1.42-1.85 1.48-2.75 4.08t-0.9 6.05q0 3.35 0.9 6t2.75 4.12q1.85 1.48 4.6 1.48zm52.55 6.25h-0.15l-27.95-27.75 1.54 0.5 0.16 26h-5.41v-37.45h0.25l27.61 27.8-1.25-0.35-0.11-26.3h5.31v37.55zm38.89-19.25v14.8q-0.75 0.65-2.1 1.3t-3.02 1.15q-1.68 0.5-3.43 0.83-1.75 0.32-3.3 0.32-4.4 0-7.9-1.35t-6-3.75-3.82-5.63q-1.33-3.22-1.33-7.02 0-4.65 1.5-8.25t4.08-6.08q2.57-2.47 5.95-3.75 3.37-1.27 7.07-1.27 3.25 0 6.03 0.75 2.77 0.75 4.77 1.95l-1.75 4.9q-1-0.55-2.47-1.08-1.48-0.52-3.03-0.82t-2.85-0.3q-3.2 0-5.72 0.92-2.53 0.93-4.33 2.68t-2.77 4.25q-0.98 2.5-0.98 5.65 0 2.85 1 5.22 1 2.38 2.8 4.11 1.8 1.72 4.3 2.64 2.5 0.93 5.55 0.93 1.75 0 3.45-0.35t2.9-1v-6.6h-7v-5.15h12.4zm6.8-0.1q0-3.75 1.43-7.1 1.42-3.35 3.97-5.95t5.9-4.08q3.35-1.47 7.2-1.47 3.8 0 7.15 1.47 3.35 1.48 5.95 4.08t4.05 5.95 1.45 7.1q0 3.85-1.45 7.2t-4.02 5.9q-2.58 2.55-5.95 3.97-3.38 1.43-7.18 1.43-3.85 0-7.2-1.4t-5.9-3.93q-2.55-2.52-3.97-5.9-1.43-3.37-1.43-7.27zm5.5 0q0 2.8 1.03 5.22 1.02 2.43 2.82 4.25 1.8 1.83 4.18 2.85 2.37 1.03 5.12 1.03 2.7 0 5.05-1.03 2.35-1.02 4.13-2.85 1.77-1.82 2.77-4.25 1-2.42 1-5.22t-1.02-5.23q-1.03-2.42-2.8-4.27-1.78-1.85-4.15-2.9-2.38-1.05-5.08-1.05-2.8 0-5.15 1.05t-4.15 2.9-2.78 4.3q-0.97 2.45-0.97 5.2zm39.55 18.1v-36.3h5.35v31.15h18.15v5.15h-23.5zm24.55-31.15v-5.15h24.2v5.15h-9.55v31.15h-5.35v-31.15h-9.3zm28.59-5.15h6.35l11.7 29.2-3.05-0.55 10.95-28.65h6.3l-16.15 38-16.1-38z" fill="#50a060" data-fill-palette-color="primary"/>
</svg>
</g>
<svg class="icon-s-0" x="410.49" width="103.21" height="63.426" fill="#50a060" data-fill-palette-color="accent" data-name="Layer 1" viewBox="2.430551767349243 20.791906356811523 95.1390609741211 58.46809387207031" xmlns="http://www.w3.org/2000/svg">
<path d="M62.78 23l32 55.42 1.3-2.26h-64l1.3 2.26L65.37 23a1.5 1.5 0 0 0-2.59-1.51L30.79 77a1.51 1.51 0 0 0 1.3 2.26h64A1.51 1.51 0 0 0 97.37 77l-32-55.42A1.5 1.5 0 0 0 62.78 23Z" data-fill-palette-color="accent"/>
<path d="M34.63 23l32 55.42 1.3-2.26h-64l1.3 2.26L37.22 23a1.5 1.5 0 0 0-2.59-1.51L2.63 77a1.51 1.51 0 0 0 1.3 2.26h64A1.51 1.51 0 0 0 69.21 77l-32-55.42A1.5 1.5 0 0 0 34.63 23Z" data-fill-palette-color="accent"/>
</svg>
</svg>
</svg>
</svg>
</svg>
</svg>
</svg>
</svg>
