<?xml version="1.0" encoding="UTF-8" standalone="no"?>
<svg
   version="1.1"
   width="340"
   height="42.82"
   id="svg148"
   sodipodi:docname="logo.svg"
   inkscape:version="1.2.2 (b0a8486541, 2022-12-01)"
   xmlns:inkscape="http://www.inkscape.org/namespaces/inkscape"
   xmlns:sodipodi="http://sodipodi.sourceforge.net/DTD/sodipodi-0.dtd"
   xmlns="http://www.w3.org/2000/svg"
   xmlns:svg="http://www.w3.org/2000/svg">
  <defs
     id="defs152" />
  <sodipodi:namedview
     id="namedview150"
     pagecolor="#ffffff"
     bordercolor="#000000"
     borderopacity="0.25"
     inkscape:showpageshadow="2"
     inkscape:pageopacity="0.0"
     inkscape:pagecheckerboard="0"
     inkscape:deskcolor="#d1d1d1"
     showgrid="false"
     inkscape:zoom="3.8352941"
     inkscape:cx="170"
     inkscape:cy="35.069018"
     inkscape:window-width="2560"
     inkscape:window-height="1036"
     inkscape:window-x="0"
     inkscape:window-y="18"
     inkscape:window-maximized="1"
     inkscape:current-layer="svg148" />
  <g
     id="g146"
     transform="translate(0.23139064,-75.439504)">
    <svg
       viewBox="0 0 395.52 48.834103"
       height="48.834103"
       width="340"
       version="1.1"
       x="0"
       y="72.99295"
       viewbox="0 0 340 194.82000000000002"
       id="svg144">
      <g
         id="g140">
        <svg
           viewBox="0 0 513.7003 63.4256"
           height="48.834103"
           width="395.51999"
           version="1.1"
           id="svg138">
          <g
             id="g136">
            <svg
               viewBox="0 0 513.7003 63.4256"
               height="63.425598"
               width="513.70032"
               version="1.1"
               id="svg134">
              <g
                 id="textblocktransform">
                <svg
                   viewBox="0 0 513.7003 63.4256"
                   height="63.425598"
                   width="513.70032"
                   id="textblock"
                   version="1.1">
                  <g
                     id="g130">
                    <svg
                       viewBox="0 0 513.7003 63.4256"
                       height="63.425598"
                       width="513.70032"
                       version="1.1"
                       id="svg128">
                      <g
                         id="g100">
                        <svg
                           version="1.1"
                           id="svg98"
                           width="100%"
                           height="100%">
                          <g
                             id="g94" />
                          <g
                             id="g96" />
                        </svg>
                      </g>
                      <g
                         id="g110">
                        <svg
                           version="1.1"
                           id="svg108"
                           width="100%"
                           height="100%">
                          <g
                             id="g104">
                            <svg
                               version="1.1"
                               id="svg102"
                               width="100%"
                               height="100%" />
                          </g>
                          <g
                             id="g106" />
                        </svg>
                      </g>
                      <g
                         id="text-0">
                        <svg
                           viewBox="0 0 513.7003 63.4256"
                           height="63.425598"
                           width="513.70032"
                           version="1.1"
                           id="svg125">
                          <g
                             transform="translate(0,4.5787713)"
                             id="g116">
                            <svg
                               width="395.51999"
                               viewBox="5.0999999 -37.5 285.67999 39.200001"
                               height="54.268059"
                               data-palette-color="#50a060"
                               version="1.1"
                               id="svg114">
                              <path
                                 d="M 10.25,0 H 5.1 v -37.5 h 0.05 l 19.3,27.35 -2.3,-0.5 19.2,-26.85 h 0.1 V 0 h -5.3 V -25.45 L 36.5,-22.7 23.1,-3.75 H 23 L 9.35,-22.7 l 0.9,-2.5 z m 51.9,0.15 v 0 q -3,0 -5.53,-1.13 Q 54.1,-2.1 52.25,-4.25 50.4,-6.4 49.35,-9.53 48.3,-12.65 48.3,-16.6 v 0 q 0,-4.3 1,-7.45 1,-3.15 2.82,-5.23 1.83,-2.07 4.38,-3.05 2.55,-0.97 5.65,-0.97 v 0 q 3.05,0 5.57,1.1 2.53,1.1 4.38,3.25 1.85,2.15 2.87,5.27 1.03,3.13 1.03,7.08 v 0 q 0,4.05 -1.03,7.17 -1.02,3.13 -2.9,5.26 -1.87,2.12 -4.37,3.22 -2.5,1.1 -5.55,1.1 z M 62.1,-5 v 0 q 2.85,0 4.7,-1.48 1.85,-1.47 2.75,-4.15 0.9,-2.67 0.9,-6.12 v 0 q 0,-3.35 -0.9,-5.93 -0.9,-2.57 -2.75,-4.05 -1.85,-1.47 -4.7,-1.42 v 0 q -2.75,-0.05 -4.6,1.42 -1.85,1.48 -2.75,4.08 -0.9,2.6 -0.9,6.05 v 0 q 0,3.35 0.9,6 0.9,2.65 2.75,4.12 1.85,1.48 4.6,1.48 z m 52.55,6.25 H 114.5 L 86.55,-26.5 88.09,-26 88.25,0 h -5.41 v -37.45 h 0.25 l 27.61,27.8 -1.25,-0.35 -0.11,-26.3 h 5.31 z M 153.54,-18 v 14.8 q -0.75,0.65 -2.1,1.3 -1.35,0.65 -3.02,1.15 -1.68,0.5 -3.43,0.83 -1.75,0.32 -3.3,0.32 v 0 q -4.4,0 -7.9,-1.35 -3.5,-1.35 -6,-3.75 -2.5,-2.4 -3.82,-5.63 -1.33,-3.22 -1.33,-7.02 v 0 q 0,-4.65 1.5,-8.25 1.5,-3.6 4.08,-6.08 2.57,-2.47 5.95,-3.75 3.37,-1.27 7.07,-1.27 v 0 q 3.25,0 6.03,0.75 2.77,0.75 4.77,1.95 v 0 l -1.75,4.9 q -1,-0.55 -2.47,-1.08 -1.48,-0.52 -3.03,-0.82 -1.55,-0.3 -2.85,-0.3 v 0 q -3.2,0 -5.72,0.92 -2.53,0.93 -4.33,2.68 -1.8,1.75 -2.77,4.25 -0.98,2.5 -0.98,5.65 v 0 q 0,2.85 1,5.22 1,2.38 2.8,4.11 1.8,1.72 4.3,2.64 2.5,0.93 5.55,0.93 v 0 q 1.75,0 3.45,-0.35 1.7,-0.35 2.9,-1 v 0 -6.6 h -7 V -18 Z m 6.8,-0.1 v 0 q 0,-3.75 1.43,-7.1 1.42,-3.35 3.97,-5.95 2.55,-2.6 5.9,-4.08 3.35,-1.47 7.2,-1.47 v 0 q 3.8,0 7.15,1.47 3.35,1.48 5.95,4.08 2.6,2.6 4.05,5.95 1.45,3.35 1.45,7.1 v 0 q 0,3.85 -1.45,7.2 -1.45,3.35 -4.02,5.9 -2.58,2.55 -5.95,3.97 -3.38,1.43 -7.18,1.43 v 0 q -3.85,0 -7.2,-1.4 -3.35,-1.4 -5.9,-3.93 -2.55,-2.52 -3.97,-5.9 -1.43,-3.37 -1.43,-7.27 z m 5.5,0 v 0 q 0,2.8 1.03,5.22 1.02,2.43 2.82,4.25 1.8,1.83 4.18,2.85 2.37,1.03 5.12,1.03 v 0 q 2.7,0 5.05,-1.03 2.35,-1.02 4.13,-2.85 1.77,-1.82 2.77,-4.25 1,-2.42 1,-5.22 v 0 q 0,-2.8 -1.02,-5.23 -1.03,-2.42 -2.8,-4.27 -1.78,-1.85 -4.15,-2.9 -2.38,-1.05 -5.08,-1.05 v 0 q -2.8,0 -5.15,1.05 -2.35,1.05 -4.15,2.9 -1.8,1.85 -2.78,4.3 -0.97,2.45 -0.97,5.2 z M 205.39,0 v -36.3 h 5.35 v 31.15 h 18.15 V 0 Z m 24.55,-31.15 v -5.15 h 24.2 v 5.15 h -9.55 V 0 h -5.35 v -31.15 z m 28.59,-5.15 h 6.35 l 11.7,29.2 -3.05,-0.55 10.95,-28.65 h 6.3 l -16.15,38 z"
                                 opacity="1"
                                 fill="#50a060"
                                 class="undefined-text-0"
                                 data-fill-palette-color="primary"
                                 id="path112" />
                            </svg>
                          </g>
                          <g
                             id="g123">
                            <svg
                               data-name="Layer 1"
                               viewBox="2.4305518 20.791906 95.139061 58.468094"
                               x="410.49438"
                               y="0"
                               height="63.425598"
                               width="103.20589"
                               class="icon-s-0"
                               data-fill-palette-color="accent"
                               id="s-0"
                               version="1.1">
                              <path
                                 d="m 62.78,23 32,55.42 1.3,-2.26 h -64 l 1.3,2.26 L 65.37,23 A 1.5,1.5 0 0 0 62.78,21.49 L 30.79,77 a 1.51,1.51 0 0 0 1.3,2.26 h 64 A 1.51,1.51 0 0 0 97.37,77 l -32,-55.42 A 1.5,1.5 0 0 0 62.78,23 Z"
                                 fill="#50a060"
                                 data-fill-palette-color="accent"
                                 id="path118" />
                              <path
                                 d="m 34.63,23 32,55.42 1.3,-2.26 h -64 L 5.23,78.42 37.22,23 A 1.5,1.5 0 0 0 34.63,21.49 L 2.63,77 a 1.51,1.51 0 0 0 1.3,2.26 h 64 A 1.51,1.51 0 0 0 69.21,77 l -32,-55.42 A 1.5,1.5 0 0 0 34.63,23 Z"
                                 fill="#50a060"
                                 data-fill-palette-color="accent"
                                 id="path120" />
                            </svg>
                          </g>
                        </svg>
                      </g>
                    </svg>
                  </g>
                </svg>
              </g>
            </svg>
          </g>
        </svg>
      </g>
      <defs
         id="defs142" />
    </svg>
  </g>
</svg>
